<svg width="128" height="128" viewBox="0 0 128 128" fill="none" xmlns="http://www.w3.org/2000/svg">
<path d="M61.2998 99.1002V63.8002C61.2998 59.3002 64.8998 55.7002 69.3998 55.7002H93.7998C98.2998 55.7002 101.9 59.3002 101.9 63.8002V99.1002H61.2998Z" fill="white"/>
<path d="M102 117.2H61.2998V124H102V117.2Z" fill="white"/>
<path d="M102 101.3H61.2998V114.9H102V101.3Z" fill="white"/>
<path d="M50 83.2002C45 83.2002 41 87.3002 41 92.2002C41 97.1002 45.1 101.2 50 101.2V119.3C50 121.8 52 123.8 54.5 123.8V127.2H59V123.8V120.4V92.3002C59 87.3002 54.9 83.2002 50 83.2002Z" fill="white"/>
<path d="M113.3 83.2002C108.3 83.2002 104.3 87.3002 104.3 92.2002V120.5V123.9V127.3H108.8V123.9C111.3 123.9 113.3 121.9 113.3 119.4V101.3C118.3 101.3 122.3 97.2002 122.3 92.3002C122.3 87.4002 118.3 83.2002 113.3 83.2002Z" fill="white"/>
<path d="M35.3002 118.3V36.9002H59.0002L54.5002 0.700195H9.3002L4.7002 36.9002H28.5002V118.3H25.1002L22.8002 127.3H40.9002L38.7002 118.3H35.3002Z" fill="white"/>
</svg>
