<svg xmlns="http://www.w3.org/2000/svg" xmlns:xlink="http://www.w3.org/1999/xlink" width="225" height="225" viewBox="0 0 225 225">
  <defs>
    <clipPath id="clip-turkcell-logo">
      <rect width="225" height="225"/>
    </clipPath>
  </defs>
  <g id="turkcell-logo" clip-path="url(#clip-turkcell-logo)">
    <rect width="225" height="225" fill="#fff"/>
    <path id="Path_1" data-name="Path 1" d="M371.274,97.15a106.28,106.28,0,0,0-67.8-48.11c-23.844-5.591-47.03-3.066-69.387,6.939A104.894,104.894,0,0,0,201.4,78.825a108.436,108.436,0,0,0-25.419,41.147c-.048.141-.088.278-.134.419-.18.539-.342,1.087-.514,1.63-5.306,17.712-.347,27.495,7.454,19.3.306-.355.622-.7.932-1.049.118-.142.234-.272.354-.421,9.125-11.473,23.641-21.035,23.641-21.035l.008.008q5.542-3.864,11.528-7.222a91.09,91.09,0,0,1,13.784-6.78,10.544,10.544,0,0,0,5.24-7.645c.02-.107.041-.213.062-.319.01-.058.024-.109.033-.168.741-4.79,5.874-17.957,20.4-18.823a23.055,23.055,0,0,1,13.045,2.079h0A23.753,23.753,0,0,1,285.27,97.975a24.369,24.369,0,0,1-3.923,17.171,10.138,10.138,0,0,1-.6.824c-.063.085-.126.169-.191.253h0a23.36,23.36,0,0,1-10.913,7.79,24.9,24.9,0,0,1-7.978,1.56l-.012,0a14.562,14.562,0,0,1-5.251-.448,19.027,19.027,0,0,1-5.534-2.009,27.678,27.678,0,0,1-5.917-3.568,4.564,4.564,0,0,0-2.069-1.109,6.514,6.514,0,0,0-3.7.434l-.027.013h0a6.228,6.228,0,0,0-1.186.684q-5.214,4.348-9.918,9.121a183.524,183.524,0,0,0-18.392,23.339q-2.574,4.125-4.89,8.465-2.137,4.024-3.979,8.139a145.006,145.006,0,0,0-5.371,14.021c-.074.229-.15.457-.222.686q-.152.478-.3.952c-.1.313-.187.626-.28.94-9.989,34.215,7.993,53.971,23.065,33.331q1.234-1.96,2.524-3.887c.007-.013.016-.026.023-.04,15.793-27.335,48.2-47.062,48.2-47.062l.016,0q2.973-1.891,6.013-3.644l.009-.012.379-.21a160.254,160.254,0,0,1,17.142-8.523,97.151,97.151,0,0,1,15.385-5.618,10.365,10.365,0,0,0,6.847-8.044v-.007a22.735,22.735,0,0,1,12.292-15.475,23.5,23.5,0,0,1,11.919-2.612h.014a11.348,11.348,0,0,1,3.4.408,23.855,23.855,0,0,1-1.308,47.062,22.877,22.877,0,0,1-17.231-4.363,14.031,14.031,0,0,0-11.407-.11,130.78,130.78,0,0,0-13.995,8.828,158.308,158.308,0,0,0-17.525,15.258,132.11,132.11,0,0,0-15.227,18.951c-.234.363-.468.726-.7,1.1-.062.1-.121.195-.183.291a141.04,141.04,0,0,0-13.34,27.686c-.3.871-.6,1.74-.882,2.62-4.25,14.368,4.96,20.091,15.609,22.171a85.3,85.3,0,0,0,20.366.728c.7-.06,1.334-.121,1.872-.177,3.035-.372,6.077-.7,9.088-1.209A107.174,107.174,0,0,0,351.7,236.418c19.707-17.71,31.58-39.778,35.268-65.988C390.664,144.179,385.484,119.569,371.274,97.15Z" transform="translate(-168.122 -43.125)" fill="#ffb500"/>
  </g>
</svg>
